<svg xmlns="http://www.w3.org/2000/svg" width="29.09" height="32"><path fill="#fff" d="M14.54 32c-.61 0-1.22-.16-1.75-.46L1.75 25.26A3.43 3.43 0 0 1 0 22.28V9.72C0 8.5.67 7.35 1.75 6.74L12.79.46c.53-.3 1.14-.46 1.75-.46s1.22.16 1.75.46l11.04 6.28a3.43 3.43 0 0 1 1.75 2.98v12.56c0 1.23-.67 2.37-1.75 2.98l-11.04 6.28c-.53.3-1.14.46-1.75.46Z"/><path fill="#3b82f6" d="M15.31 2.2a1.49 1.49 0 0 0-1.5 0c-2.2 1.28-8.63 5.01-10.82 6.28-.46.27-.74.76-.74 1.29v13.15c0 .34.19.66.5.81l2.47 1.24V12.4l5.72 3.3v12.1c0 .33.18.64.48.8l2.59 1.4V16.55c0-.53.28-1.02.75-1.29L26.3 8.63 15.31 2.2Zm-2.73 11.06L6.66 9.79l7.51-4.36c.3-.17.66-.17.96 0l5.31 3.13-7.85 4.69Z"/><path fill="#1f4586" d="M15.41 17.04V30l2.72-1.56v-4.92l6.22-3.57v4.92l2.28-1.32c.26-.15.41-.42.41-.71l.02-4.41-1.36-.8 1.37-2.37v-2.28l.02-3.12v-.02l-11.22 6.4c-.29.16-.46.47-.46.79Zm8.95-.22-6.23 3.56V18.1l6.23-3.56v2.28Z"/></svg>